<?xml version="1.0" encoding="UTF-8"?>
<svg id="svg1" xmlns="http://www.w3.org/2000/svg" viewBox="0 0 1221.29 524.48">
  <defs>
    <style>
      .cls-1 {
        fill: #fff;
      }
    </style>
  </defs>
  <g id="g1">
    <g id="g14">
      <path id="path1-62" class="cls-1" d="M798.63,0c-4.39,0-6.14,1-6.92,3.96-.15.58-.37,1.05-.74,1.46l-3.04,9.64.02.29c.77,1.54,2.55,16.47,4.06,34.56,1.55,18.63,3.07,40.97,3.37,49.64l.55,15.77s-.05,0-.08,0l.71,12.88h-.04c.39,1.92.77,3.47,1.09,5.47.59,3.62.38,7.68-.47,9.02-.86,1.36-7.46,3.07-14.89,3.86-10.86,1.16-14.07,2.29-17.19,6.04-2.24,2.69-3.86,7.41-3.9,11.32-.05,5.02,1.33,8.05,5.49,12.03,5.04,4.82,6.78,5.31,18.7,5.24,9.81-.06,13.41.61,14.19,2.65.58,1.5.25,10.42-.72,19.81-.97,9.39-2.2,17.51-2.72,18.04,0,0-.55,0-.56,0,.33.21.55.42.52.62-.44,2.81,1.01,6.17,2.29,8.57,1.27,1.06,2.29,2.46,2.29,3.69,0,1.57,1.27,5.31,2.83,8.32s5.58,6.66,8.94,8.11c3.36,1.46,8.48,3.61,11.37,4.79,4.23,1.72,6.13,1.57,9.73-.79,2.46-1.61,6.24-6.69,8.4-11.28,2.13-4.52,3.63-9.21,3.42-10.59l-.85-9.81.16-.13c-.37-.62-.67-2.6-.64-4.93.02-2.51.02-6.67-.02-9.26-.03-2.59-.56-9.69-1.18-15.78q-1.12-11.07,6.12-9.46c3.99.89,20.38,1.84,36.43,2.13,16.05.28,41.47.81,56.48,1.18,15.01.37,41.37,1.21,58.57,1.87q31.27,1.2,38.79-4.24c7.13-5.17,7.58-6.08,8.81-18.09.99-9.67.64-13.64-1.47-16.87-1.52-2.32-7.22-6.55-12.66-9.39-5.44-2.84-11.72-8-15.17-9.08-3.09-.96-4.64-2.72-6.38-3.93-11.45-7.93-14.95-9.47-17.78-9.76-4.02-.42-8.28-4.7-10.36-6.46-2.07-1.76-8.85-6.33-15.06-10.16-6.21-3.82-15.11-9.86-19.77-13.42-4.66-3.56-13.98-9.57-20.71-13.37s-14.27-8.27-16.75-9.94c-2.48-1.67-6.72-4.5-9.41-6.3-2.69-1.8-6.17-3.87-7.72-4.6-1.55-.73-7.59-4.77-13.42-8.96-5.83-4.2-13.41-9.33-16.85-11.4-3.44-2.07-8.01-4.78-10.16-6.02-2.15-1.24-8.05-6.13-11.44-7.79-18.26-9-24.98-13.69-27.62-14.62-6.06-2.14-13.42-4.51-16.65-4.51ZM607.6.35c-2.15-.02-4.58,0-7.14.09-5.12.15-10.76.49-15.67.98-9.84.97-21.27,2.66-25.42,3.75-4.14,1.09-10.92,3.5-15.06,5.35-.19.08-.68.14-.9.22l-.34.18-14.8,8.98s.03.01.03.02c0,1.11-2.12,2.82-4.71,3.8-2.59.98-4.71,2.77-4.71,3.97s-6.01,8.51-13.36,16.24c-9.87,10.4-15.21,18.07-20.44,29.4-3.9,8.44-8.88,19.57-11.07,24.75-2.19,5.18-4.52,12.59-5.18,16.48-.61,3.57-1.54,6.33-2.21,6.88l-1.08,5.33s.07,0,.13,0l-.95,18.09c-.55,10.45,0,23.08,1.3,29.9,1.24,6.5,3.63,15.63,5.32,20.29,1.69,4.66,4.39,10.55,6.01,13.09,1.61,2.54,4.74,6.66,6.96,9.16,2.22,2.5,5.4,6.14,7.07,8.09.43.51.67.83.97,1.21l.42.36,15.18,10.59v.02c.65.25,1.47.45,1.98.75,3.81,2.25,12.68,6.23,19.71,8.86,7.03,2.63,18.87,6.72,26.31,9.09,7.44,2.37,13.95,3.88,14.48,3.35s10.97-1.3,23.19-1.71c12.23-.41,26.04-1.11,30.7-1.54,4.66-.43,11.44-1.31,15.06-1.96,3.62-.65,12.1-2.93,18.83-5.09,6.73-2.15,15.18-5.29,18.78-6.96,3.6-1.67,8.26-4.74,10.35-6.81.69-.68,1.49-1.21,2.57-1.67l12.39-9.45c.26-.57.87-1.22,1.85-2.06,3.01-2.59,6.16-4.71,7.01-4.71s7.57-5.72,14.95-12.71c7.38-6.99,14.96-15.72,16.85-19.39,1.89-3.68,4.83-13.42,6.54-21.65,1.71-8.23,3.6-20.71,4.2-27.73l.96-11.25-.3-11.11c-.1-.84-.13-1.79-.13-2.9,0-4.66-1.36-11.57-3.03-15.35-1.67-3.78-4.42-9.72-6.12-13.19-1.7-3.47-12.41-14.96-23.8-25.53s-22.83-21.15-25.42-23.53c-2.59-2.37-9.16-6.45-14.59-9.05-5.23-2.51-9.46-5.23-9.77-6.25l-18.04-7.46-.03-.06c-5.28-.8-8.96-1.92-14.05-3.63-8.8-2.95-20.66-5.78-26.36-6.29-1.42-.13-3.29-.2-5.43-.22ZM418.58.43c-3.23,0-10.59,2.38-16.65,4.51-2.64.93-9.36,5.62-27.62,14.62-3.38,1.67-9.29,6.56-11.44,7.79-2.15,1.24-6.72,3.95-10.16,6.02-3.44,2.07-11.02,7.2-16.85,11.4-5.83,4.2-11.87,8.23-13.42,8.97-1.55.73-5.03,2.8-7.72,4.6-2.69,1.8-6.93,4.64-9.41,6.3-2.48,1.67-10.02,6.14-16.75,9.94-6.73,3.8-16.05,9.82-20.71,13.37-4.66,3.56-13.55,9.59-19.77,13.42-6.21,3.82-12.99,8.39-15.06,10.15-2.07,1.76-6.33,6.05-10.36,6.46-2.82.29-6.33,1.83-17.78,9.76-1.74,1.2-3.29,2.97-6.38,3.93-3.45,1.07-9.73,6.23-15.17,9.08-5.44,2.84-11.14,7.07-12.66,9.39-2.12,3.23-2.46,7.2-1.47,16.87,1.23,12.01,1.68,12.92,8.81,18.09q7.51,5.44,38.79,4.24c17.2-.66,43.56-1.5,58.57-1.87,15.01-.37,40.43-.9,56.48-1.18,16.05-.28,32.44-1.24,36.43-2.13q7.25-1.61,6.13,9.46c-.62,6.09-1.15,13.19-1.18,15.78-.03,2.59-.04,6.76-.01,9.26.02,2.33-.28,4.31-.65,4.93l.16.13-.85,9.81c-.21,1.38,1.3,6.07,3.43,10.59,2.16,4.59,5.94,9.67,8.4,11.28,3.61,2.36,5.5,2.52,9.73.79,2.89-1.18,8-3.33,11.37-4.79s7.39-5.11,8.95-8.11,2.83-6.75,2.83-8.32c0-1.23,1.02-2.63,2.29-3.69,1.28-2.39,2.73-5.76,2.29-8.56-.03-.21.19-.42.52-.63,0,0-.55,0-.56,0-.53-.53-1.75-8.64-2.72-18.03-.97-9.39-1.3-18.31-.72-19.81.78-2.04,4.38-2.71,14.19-2.65,11.91.07,13.66-.42,18.7-5.24,4.16-3.98,5.54-7.01,5.49-12.03-.04-3.91-1.66-8.63-3.9-11.32-3.12-3.75-6.33-4.88-17.19-6.04-7.43-.79-14.04-2.51-14.9-3.87-.85-1.34-1.06-5.4-.47-9.02.33-2.01.7-3.55,1.1-5.47h-.04s.71-12.88.71-12.88c-.03,0-.05,0-.08,0l.55-15.77c.3-8.67,1.82-31.01,3.37-49.64,1.51-18.09,3.29-33.01,4.06-34.56l.02-.29-3.04-9.64c-.37-.42-.59-.89-.74-1.46-.77-2.96-2.52-3.96-6.92-3.96ZM590.38,40.37c18.71-.03,22.16.53,37.17,6.11,9.1,3.38,18.79,7.7,21.54,9.58,2.75,1.89,5.8,3.43,6.78,3.43s10.7,8.45,21.6,18.78c12.82,12.15,21.23,21.78,23.82,27.28,2.2,4.67,3.99,9.78,3.99,11.34,0,.15-.11.28-.16.42,1.14,5.83.46,9.98-.14,12.16,0,.23.08.37.06.62-.13,3.11-1.33,13.12-2.66,22.26-1.53,10.49-3.69,18.12-5.88,20.71-1.9,2.26-6,6.93-9.11,10.38-3.11,3.45-7.67,8.25-10.14,10.65-2.47,2.4-6.28,5.25-8.47,6.33s-7.79,3.62-12.45,5.64c-4.66,2.03-11.88,4.59-16.04,5.71s-18.14,2.81-31.07,3.78-26.53,1.54-30.24,1.27c-3.71-.26-13.03-2.88-20.71-5.81-7.68-2.93-15.09-6.45-16.46-7.82-1.37-1.37-3.59-2.48-4.94-2.48s-5.76-3.6-9.81-8c-4.05-4.4-8.3-10.54-9.45-13.65-1.15-3.11-3.09-10.31-4.32-16-1.22-5.7-1.95-16.28-1.62-23.53l.61-13.18h.19s.79-7.48.79-7.48c0-.08-.03-.14-.03-.23,0-.07.11-.41.11-.49l.08-.74h.09c.37-2.86,2.5-10.54,5.32-18.83,3.08-9.05,6.86-18.89,8.4-21.88,1.55-2.99,5.52-7.87,8.83-10.84,3.31-2.97,10.33-9.32,15.6-14.1,5.27-4.79,11.49-9.3,13.83-10.02,2.34-.72,13.53-1.33,24.87-1.35ZM836.11,61.71c.33,0,.7.04,1.12.12,2.01.35,7.09,3.42,11.3,6.81,4.21,3.4,9.76,7.24,12.35,8.54,2.59,1.3,8.94,5.55,14.12,9.45,5.18,3.89,11.53,7.7,14.12,8.46,2.59.76,5.98,2.45,7.53,3.76,1.55,1.31,5.37,3.77,8.47,5.48,3.11,1.71,8.13,4.6,11.17,6.43,2.66,1.6,4.89,3.6,5.74,4.94,0,0,.21.04.21.04l22.18,13.85c.29.15.93.26,1.18.41,4.66,2.98,13.28,7.98,19.16,11.1,5.88,3.12,11.31,6.68,12.06,7.9.98,1.59.09,1.85-3.16.9-2.49-.73-32.06-1.7-65.72-2.17-33.65-.47-63.05-1.28-65.32-1.81-3.29-.76-4.28-2.58-4.85-8.95-.4-4.4-.87-9.57-1.05-11.5,0-.04.26-.06.27-.1l-.43-8.62s-.04,0-.04,0c-.5-.88-2.16-5.72-2.54-12.71-.38-6.99-.63-19.48-.56-27.77.11-12.1.36-14.52,2.67-14.54ZM381.1,62.14c2.31.03,2.56,2.44,2.67,14.54.07,8.28-.18,20.78-.56,27.77-.38,6.99-2.04,11.82-2.54,12.71,0,0-.04,0-.04,0l-.42,8.63s.28.06.27.1c-.18,1.93-.65,7.11-1.05,11.5-.57,6.37-1.56,8.19-4.85,8.95-2.27.53-31.66,1.34-65.32,1.8-33.65.47-63.23,1.44-65.72,2.17-3.24.95-4.14.69-3.16-.9.76-1.22,6.18-4.78,12.06-7.9,5.88-3.12,14.5-8.12,19.16-11.1.25-.16.89-.26,1.18-.41l22.18-13.85s.2-.03.21-.04c.85-1.33,3.08-3.34,5.74-4.94,3.04-1.83,8.06-4.72,11.17-6.43,3.11-1.71,6.92-4.18,8.47-5.48,1.55-1.31,4.94-3,7.53-3.76,2.59-.76,8.94-4.56,14.12-8.46,5.18-3.89,11.53-8.15,14.12-9.45,2.59-1.3,8.15-5.15,12.35-8.54,4.21-3.4,9.29-6.46,11.29-6.81.42-.07.79-.12,1.12-.11ZM1075.69,204.29c-6.69.11-10.42,2.36-10.42,1.89l-.45.91c-.31-.15-.55-.22-.65-.13-.63.61-6.68,7.62-16.46,8.04-9.78.42-22.62.7-28.53.63-5.91-.07-20.12.2-31.57.6-11.45.4-22.68.93-24.95,1.2-1.66.19-2.3.17-2.68,0l-.31.13-20.09-.29h0c-3.37.17-7.13.16-12.33.08-12.72-.22-23.65-.94-24.3-1.62-.65-.67-4.87-1.13-9.39-1.02-4.52.11-9.63,1.56-11.35,3.21s-4.41,5.94-5.96,9.51c-1.68,3.86-1.98,8.49-.74,11.41.38.9.82,1.61,1.31,2.28.16.23.17.24.33.46,1.85,2.17,5.02,3.38,12.74,5.44,6.76,1.8,13.95,3.15,15.97,3,.16-.01.23.08.39.08l20.47-.66c.12-.05.45-.31.56-.35,3.1-.92,6.29-1.39,7.1-1.06s9.85.16,20.1-.38c10.25-.54,22.32-.97,26.82-.95,4.5.01,89.17-2.13,106.37-2.33.82,0,1.52-.11,2.15-.26,1.7,1.87,6.04,5.99,12.75,11.79,7.77,6.71,16.77,14.76,20.01,17.89,3.24,3.13,16.16,15.32,28.71,27.1,12.55,11.77,22.82,22.49,22.82,23.8s-1.38,2.93-3.07,3.57c-1.69.65-13.34.7-25.89.11-12.55-.59-24.09-1.4-25.64-1.8s-13.43-1.29-26.38-1.96-44.73-.32-70.6.78c-25.87,1.1-75,2.56-109.17,3.24-34.17.68-87.12,1.45-117.67,1.7-30.55.26-65.71-.31-78.13-1.27-12.43-.95-33.18-2.23-46.13-2.85-12.94-.62-30.74-.8-39.54-.4-3.43.16-10.49.27-18.4.37-10.95-.11-20.49-.25-24.86-.45-8.8-.4-26.59-.22-39.54.4-12.94.62-33.7,1.9-46.13,2.85-12.43.95-47.59,1.52-78.13,1.27-30.55-.26-83.5-1.02-117.67-1.71-34.17-.68-83.3-2.14-109.17-3.23-25.87-1.1-57.64-1.45-70.6-.78-12.96.67-24.83,1.55-26.38,1.96-1.55.41-13.09,1.22-25.64,1.8-12.55.59-24.2.54-25.89-.11-1.69-.65-3.07-2.25-3.07-3.57s10.27-12.03,22.83-23.8c12.55-11.77,25.47-23.97,28.71-27.1,3.24-3.13,12.24-11.18,20.01-17.89,7.77-6.71,14.41-12.85,14.76-13.65.05-.11.42-.36.56-.51.55.11,1.14.18,1.82.19,17.21.2,101.87,2.35,106.37,2.33,4.5-.01,16.57.41,26.82.95,10.25.54,19.29.71,20.1.38.81-.33,4,.15,7.1,1.06.11.03.44.3.56.35l20.47.66c.17,0,.23-.09.39-.08,2.02.15,9.2-1.21,15.97-3,7.72-2.05,10.88-3.27,12.74-5.44.16-.22.17-.23.33-.46.5-.67.93-1.38,1.31-2.28,1.24-2.91.94-7.55-.74-11.41-1.55-3.58-4.24-7.86-5.96-9.51-1.73-1.66-6.83-3.1-11.35-3.21s-8.74.35-9.39,1.02c-.65.67-11.58,1.4-24.3,1.62-5.21.09-8.97.1-12.33-.08h0s-20.09.29-20.09.29l-.31-.13c-.37.17-1.02.19-2.68,0-2.27-.26-13.49-.8-24.95-1.2-11.45-.4-25.66-.66-31.57-.6-5.91.07-19.26,2.51-28.53-.63-3.84-1.3-15.51-3.69-21.9-5.13-4.48-1.42-9.22-2.34-13.9-2.49-.93-.03-13.64,1.28-22.66,10.24-3.69,3.67-6.4,6.28-8.96,8.48h0s-14.3,14.12-14.3,14.12l-.31.12c-.16.38-.61.85-1.94,1.85-1.82,1.38-10.29,8.77-18.83,16.41-8.54,7.64-18.97,17.29-23.19,21.43-4.22,4.14-13.68,12.83-21.02,19.3-7.34,6.47-14.07,11.77-14.94,11.77s-3.91,2.14-6.73,4.76c-2.83,2.62-5.67,6.89-6.32,9.48-.11,4.55-.19,8.95.17,10.63,1.58,7.41,5.02,12.01,5.82,13.04-.43.99-.85,1.75-1.2,1.99l-1.3,4.95c.05,0,.08,0,.15,0l-1.37,16.8c-.79,9.7-.39,21.43.94,27.77.31,1.49.7,3.13,1.13,4.81l-.68-.69c6.33,30.64,4.42,46.21,12.94,61.01,8.52,16.27,11.74,23.13,21.21,27.56l-.46-.02c8.86,2.52,5.77,10.97,57.84,30.18,8.58,3.17,16.56,4.01,17.2,3.48.64-.53,13.09-1.22,27.67-1.55,14.58-.32,31.05-.92,36.61-1.32,5.56-.4,13.66-1.23,17.99-1.86,4.33-.62,14.46-2.86,22.52-4.98,8.06-2.12,18.19-5.21,22.51-6.87,10-3.63,18.36-10.62,25.97-17.08,9.48-10.74,9.68-12.24,18.96-23.56,12.27-12.8,14.75-22.31,17.07-25.99,2.17-3.44,3.81-11.94,6.43-19.59,2.19,16.26,3.05,27.37,9.06,37.83,8.52,16.27,11.74,23.13,21.21,27.56l-.45-.02c8.86,2.52,5.77,10.97,57.84,30.18,8.58,3.17,16.56,4.01,17.2,3.48.64-.53,13.09-1.22,27.67-1.55,14.58-.32,31.05-.92,36.61-1.32,5.56-.4,13.66-1.23,17.99-1.86,4.33-.62,14.46-2.86,22.52-4.98,8.06-2.12,18.19-5.21,22.51-6.87,10-3.63,18.36-10.62,25.97-17.08,9.48-10.74,9.68-12.24,18.96-23.56,12.27-12.8,14.75-22.31,17.07-25.99,1.58-2.52,2.89-7.79,4.49-13.42,1.73,13.35,3.04,23.36,8.37,32.61,8.52,16.27,11.74,23.13,21.21,27.56l-.46-.02c8.86,2.52,5.77,10.97,57.84,30.18,8.58,3.17,16.56,4.01,17.2,3.48.64-.53,13.09-1.22,27.67-1.55,14.58-.32,31.05-.92,36.61-1.32,5.56-.4,13.66-1.23,17.99-1.86,4.33-.62,14.47-2.86,22.53-4.98,8.06-2.12,18.19-5.21,22.51-6.87,10-3.63,18.36-10.62,25.97-17.08,9.48-10.74,9.68-12.24,18.96-23.56,12.27-12.8,14.75-22.31,17.07-25.99,1.22-1.93,2.26-5.49,3.4-9.57,1.59,12.12,3.04,21.48,8.04,30.17,8.52,16.27,11.74,23.13,21.21,27.56l-.46-.02c8.86,2.52,5.77,10.97,57.84,30.18,8.58,3.17,16.56,4.01,17.2,3.48.64-.53,13.09-1.22,27.67-1.55,14.58-.32,31.05-.92,36.61-1.32,5.56-.4,13.66-1.23,17.99-1.86,4.33-.62,14.46-2.86,22.52-4.98,8.06-2.12,18.19-5.21,22.51-6.87,10-3.63,18.36-10.62,25.97-17.08,9.48-10.74,9.68-12.24,18.96-23.56,12.27-12.8,14.75-22.31,17.07-25.99,2.32-3.69,3.99-13.19,6.96-21.22l5.91-16.01-.6.44c1.97-4.34,4.26-10.76,5.78-16.43,2.05-7.65,4.37-19.23,5.16-25.75l1.26-10.45-.14-10.31c-.1-.78-.11-1.66-.09-2.7,0-.26-.04-.57-.05-.84h-.66c.07-2.12.19-3.96.11-6.94-.65-2.6-3.5-6.86-6.32-9.48s-5.85-4.76-6.73-4.76-7.6-5.3-14.94-11.77c-7.34-6.47-16.8-15.15-21.02-19.3-4.22-4.14-14.65-13.79-23.19-21.44s-17-15.03-18.82-16.41c-1.33-1.01-1.78-1.47-1.94-1.85l-.31-.12-14.3-14.12h0c-2.55-2.21-4.8-5.35-8.96-8.49-11.89-8.98-21.55-11-28.24-10.88ZM46.8,355.45l65.64.52s-.07.05-.09.09c-.08.15-.05,3.66,0,3.87.01.06.11.07.13.13.08.31-.1.7,0,1,.04.11.22.14.25.25.04.16-.05.34,0,.5.09.27.18.48.25.75.06.23.31.42.37.62.07.2.07.42.13.63.14.49.4,1,.5,1.5.04.2-.05.42,0,.63.09.37.11.78.25,1.12.14.36.41.75.5,1.12.02.08-.04.18,0,.25.12.25.25.19.37.37.25.38.5.75.75,1.12.22.32.7.53.87.87.06.12.08.25.12.37.04,0,.11-.04.13,0,.04.07-.05.18,0,.25.3.46.18-.14.38.25.06.12.07.26.12.37.08.16.32.33.37.5.03.08-.05.18,0,.25.05.08.18.06.25.12.64.64-.52-.17.37.5.3.23.67.71,1,.87.04.02.1-.03.12,0,.09.09.03.28.13.37.07.07.17.07.25.12.55.37.88.94,1.5,1.25.62.31,1.54.42,2.25.62.22.06.44.28.62.37.29.15.69.17,1,.25.18.05.32.2.5.25.2.05.42.06.63.12.08.03.3.22.37.25.12.04.26-.04.37,0,.8.27,1.67.67,2.5.87.08.02.18-.04.25,0,.04.02-.03.1,0,.13.09.09.49.19.62.25.16.08.09.17.25.25.36.18.78.28,1.12.5.27.17.48.44.75.62,1.12.77,2.35,1.39,3.49,2.12.27.17.78.58,1.12.75.27.14.73.24,1,.38.22.11.39.3.62.37.53.18,1.09.21,1.62.37.27.08.48.29.75.37.24.08.5.07.75.13.81.19,1.56.51,2.37.62,1.79.26,3.68.12,5.49.12,1.41,0,3.26.21,4.62-.12.5-.13,1.22,0,1.75,0h4.37c.3,0,.45.08.75.12.76.13,1.6.03,2.37.13,1.93.24,4.96.51,6.87.12.24-.05.51.06.75,0,.22-.05.41-.18.62-.25.37-.12-.25.25.38,0,.14-.06.23-.19.37-.25.27-.11.85-.16,1.12-.25.11-.04.14-.2.25-.25.8-.4,1.69-.67,2.5-1,.09-.03.17-.08.25-.12,0-.04-.04-.11,0-.12.18-.09.54-.07.75-.13.6-.15,0-.06.38-.25.16-.08.46-.04.62-.12.18-.09.27-.19.5-.25.43-.11,1.06,0,1.5,0h2.87c.25,0,.5.05.75,0,.26-.05.49-.2.75-.25.35-.07.21.1.62,0,.06-.01.07-.11.12-.12.22-.07.52.07.75,0,.57-.19,1.1-.49,1.62-.75.45-.23,1.16-.31,1.62-.5.13-.05,1.74-.74,1.87-.88.03-.03-.04-.1,0-.12.13-.07.36-.06.5-.12.33-.16.51-.51.75-.75.09-.09.27-.05.37-.13.29-.19-.05-.07.25-.37.03-.03.09.02.12,0,.11-.06.45-.43.5-.5.02-.03-.03-.1,0-.12.35-.28.74-.51,1.13-.75,1.04-.65.02.05.87-.37.21-.11.64-.44.87-.5.12-.03.25.03.37,0,.15-.04.24-.19.37-.25.73-.29.01,0,.75-.13.13-.02.25-.08.38-.12.04-.04.07-.11.13-.12.12-.03.25.02.37,0,.18-.04.32-.2.5-.25.44-.11.74-.21,1.12-.5.09-.07.14-.2.25-.25.04-.02.1.03.13,0,.03-.03-.02-.09,0-.12.08-.16.5-.54.62-.63.03-.02.08,0,.12,0,.08-.08.17-.17.25-.25.06-.07.05-.2.13-.25.07-.05.17.03.25,0,.29-.1.45-.42.75-.63.03-.02.1.03.13,0,.03-.03-.02-.09,0-.12.23-.35.25-.25.5-.5.11-.11.16-.49.25-.63.1-.15.3-.22.37-.37.13-.26.27-.64.5-.87.07-.07.18-.06.25-.12.11-.11.16-.25.25-.38,0-.04-.02-.09,0-.12.1-.14.28-.23.37-.37.1-.15.12-.37.25-.5.03-.03.1.03.13,0,.13-.13.12-.37.25-.5.07-.07.19-.05.25-.12.11-.15.17-.33.25-.5.04-.07-.06-.19,0-.25.03-.03.1.03.13,0,0,0,.24-.46.25-.5.07-.22.05-.52.13-.75.08-.25.32-.49.37-.75.02-.12-.04-.26,0-.37.01-.04.09.03.12,0,.06-.06-.04-.18,0-.25.17-.35.4-.71.5-1.12.04-.16-.04-.34,0-.5.05-.18.19-.32.25-.5.06-.19-.06-.44,0-.63.14-.42.19-.76.37-1.12.12-.25.06-1.13,0-1.37-.01-.06-.1-.07-.13-.12-.17-.33.17-.92,0-1.25-.17-.34-.02-.56-.12-.87-.09-.26-.31-.36-.37-.62-.04-.14-.03-.3-.06-.45l73.25.58c.15,2.75.14,5.5-.26,8.25-.35,2.47-.77,4.94-1.48,7.34-.73,2.37-1.51,4.73-2.61,6.95-1.22,2.4-2.64,4.67-4.28,6.81-1.22,1.54-2.47,3.06-3.66,4.62-1.24,1.57-2.41,3.2-3.67,4.76-1.14,1.42-2.35,2.78-3.53,4.16-1.16,1.34-2.32,2.67-3.48,4-.91,1-1.81,2.01-2.78,2.94-1.3,1.5-2.61,3-3.93,4.49-1.54,1.69-3.08,3.39-4.75,4.95-2.18,2.14-4.49,4.15-6.98,5.92-2.34,1.64-4.76,3.16-7.3,4.46-2.05,1.09-4.05,2.29-6.14,3.3-2.46,1.16-4.97,2.2-7.56,3.04-2.7.86-5.37,1.81-8.05,2.69-2.83.87-5.65,1.74-8.53,2.4-3.82.96-7.66,1.89-11.58,2.31-2.84.27-5.67.44-8.52.49-2.37.1-4.75.2-7.1.53-3.39.33-6.8.55-10.2.84-3.09.14-6.17.19-9.26.4-3.38.21-6.77.46-10.16.4-2.96-.11-5.92-.27-8.85-.73-3.71-.58-7.4-1.3-11.06-2.19-3.36-.88-6.75-1.67-10.14-2.44-3.79-.98-7.58-2.02-11.25-3.38-2.55-.94-5.08-1.92-7.57-3-2.2-.94-4.4-1.89-6.61-2.81-2.37-.95-4.78-1.78-7.16-2.69-3.52-1.28-7.05-2.56-10.49-4.04-.92-.46-1.86-.87-2.74-1.37-.06-.04-.12-.08-.19-.12-1.04-.39-2.07-.81-3.07-1.28-1.78-.84-3.55-1.71-5.28-2.66-4.03-2.42-7.14-5.15-8.9-9.67-.41-1.09-.87-2.15-1.26-3.25-.14-.42-.28-.84-.42-1.26,0,0,0-.02,0-.03-.04-.18-.17-.33-.17-.51,0,0,0,0,0,0-.38-.78-.64-1.31-1.28-2.28-1.01-1.74-2.02-3.48-2.74-5.37-.74-1.89-1.39-3.81-1.82-5.8-.54-2.45-.95-4.94-.84-7.47.03-1.59.08-3.18.24-4.77.13-1.27.27-2.54.49-3.79.11-1.35.29-2.68.31-3.43.07-1.66.16-3.31.38-4.96.02-.16.04-.31.06-.47,0-.05.02-.18.03-.13,0,.15-.02.6-.01.45.03-.71.03-1.42.08-2.13.13-1.98.33-3.97.84-5.9.04-.16.1-.29.14-.43ZM1176.85,355.5c-.06.69-.06,1.37-.16,2.06-.35,2.47-.77,4.94-1.48,7.34-.73,2.37-1.51,4.73-2.61,6.95-1.22,2.4-2.64,4.67-4.28,6.81-1.22,1.54-2.47,3.06-3.66,4.62-1.24,1.57-2.41,3.2-3.67,4.76-1.14,1.42-2.35,2.78-3.53,4.16-1.16,1.34-2.32,2.67-3.48,4-.91,1-1.81,2.01-2.78,2.94-1.3,1.5-2.61,3-3.93,4.49-1.54,1.69-3.08,3.39-4.75,4.95-2.18,2.14-4.49,4.15-6.98,5.92-2.34,1.64-4.76,3.16-7.3,4.46-2.05,1.09-4.05,2.29-6.14,3.3-2.46,1.16-4.98,2.2-7.56,3.04-2.7.86-5.36,1.81-8.05,2.69-2.83.87-5.65,1.74-8.53,2.4-3.82.96-7.66,1.89-11.58,2.31-2.84.27-5.67.44-8.52.49-2.37.1-4.75.2-7.1.53-3.39.33-6.8.55-10.2.84-3.09.14-6.17.19-9.26.4-3.38.21-6.77.46-10.16.4-2.96-.11-5.92-.27-8.85-.73-3.71-.58-7.4-1.3-11.06-2.19-3.36-.88-6.75-1.67-10.14-2.44-3.79-.98-7.58-2.02-11.25-3.38-2.55-.94-5.08-1.92-7.57-3-2.2-.94-4.4-1.89-6.61-2.81-2.37-.95-4.78-1.78-7.16-2.69-3.52-1.28-7.05-2.56-10.49-4.04-.92-.46-1.86-.87-2.74-1.37-.06-.04-.12-.08-.19-.12-1.04-.39-2.07-.81-3.07-1.28-1.78-.84-3.55-1.71-5.28-2.66-4.03-2.42-7.14-5.15-8.9-9.67-.41-1.09-.87-2.15-1.26-3.25-.14-.42-.28-.84-.42-1.26,0,0,0-.02,0-.03-.04-.18-.17-.33-.17-.51,0,0,0,0,0,0-.38-.78-.64-1.31-1.28-2.28-1.01-1.74-2.02-3.48-2.74-5.37-.74-1.89-1.39-3.81-1.82-5.8-.54-2.45-.95-4.94-.84-7.47.03-1.59.08-3.18.24-4.77.13-1.27.28-2.54.49-3.79.11-1.35.29-2.68.31-3.43.05-1.21.16-2.42.28-3.63l69.24-.55c-.02.21-.06.42,0,.6.04.11.22.14.25.25.04.16-.05.34,0,.5.09.27.18.48.25.75.06.23.31.42.38.62.07.2.07.42.12.63.14.49.4,1.01.5,1.5.04.2-.05.42,0,.62.09.37.11.78.25,1.12.14.36.41.75.5,1.12.02.08-.04.17,0,.25.12.25.25.19.37.37.25.38.5.75.75,1.12.22.32.7.53.87.87.06.12.08.25.12.37.04,0,.11-.04.12,0,.04.07-.05.18,0,.25.3.46.18-.13.38.25.06.12.07.26.12.37.08.16.32.34.37.5.03.08-.05.18,0,.25.05.08.18.06.25.12.64.64-.52-.18.37.5.3.23.67.71,1,.87.04.02.1-.03.12,0,.09.09.03.28.12.37.07.07.17.07.25.12.55.37.88.94,1.5,1.25.62.31,1.54.42,2.25.63.22.06.44.28.62.37.29.15.69.17,1,.25.18.05.32.2.5.25.2.05.42.06.62.13.08.03.3.22.38.25.12.04.25-.04.37,0,.8.27,1.67.67,2.5.87.08.02.18-.04.25,0,.04.02-.03.1,0,.13.09.09.5.19.63.25.16.08.09.17.25.25.36.18.78.28,1.12.5.27.17.48.44.75.63,1.12.77,2.35,1.39,3.49,2.12.27.17.78.58,1.12.75.27.14.73.24,1,.37.22.11.39.3.62.37.53.18,1.09.21,1.62.37.27.08.48.28.75.37.24.08.5.07.75.13.81.19,1.56.51,2.37.63,1.79.26,3.67.12,5.49.12,1.41,0,3.26.21,4.62-.12.5-.13,1.22,0,1.75,0h4.37c.3,0,.45.08.75.12.76.13,1.6.03,2.37.12,1.93.24,4.96.51,6.87.13.24-.05.52.06.75,0,.22-.05.41-.18.62-.25.37-.12-.25.25.37,0,.14-.06.23-.19.37-.25.27-.11.85-.16,1.13-.25.11-.04.14-.2.25-.25.8-.4,1.69-.67,2.5-1,.09-.03.17-.08.25-.12,0-.04-.04-.11,0-.12.18-.09.54-.07.75-.13.6-.15,0-.06.37-.25.16-.08.46-.04.62-.12.18-.09.27-.19.5-.25.43-.11,1.06,0,1.5,0h2.87c.25,0,.5.05.75,0,.26-.05.49-.2.75-.25.35-.07.21.1.62,0,.06-.01.07-.11.12-.12.22-.07.53.07.75,0,.57-.19,1.1-.49,1.62-.75.45-.23,1.16-.31,1.62-.5.13-.05,1.74-.74,1.87-.87.03-.03-.04-.11,0-.13.13-.07.36-.06.5-.12.33-.16.51-.51.75-.75.09-.09.26-.05.37-.12.29-.19-.05-.07.25-.37.03-.03.09.02.13,0,.11-.06.46-.43.5-.5.02-.03-.03-.1,0-.12.35-.28.74-.51,1.12-.75,1.04-.65.02.05.87-.38.21-.11.64-.44.87-.5.12-.03.25.03.37,0,.15-.04.24-.19.37-.25.73-.29.01,0,.75-.13.13-.02.25-.08.37-.12.04-.04.07-.11.12-.12.12-.03.25.02.37,0,.18-.04.32-.2.5-.25.44-.11.74-.21,1.12-.5.09-.07.14-.2.25-.25.04-.02.1.03.12,0s-.02-.09,0-.12c.08-.16.5-.54.63-.62.03-.02.08,0,.12,0,.08-.08.17-.17.25-.25.06-.07.05-.2.13-.25.07-.05.17.03.25,0,.29-.1.45-.42.75-.63.03-.02.1.03.13,0,.03-.03-.02-.09,0-.12.23-.35.25-.25.5-.5.11-.11.16-.49.25-.63.1-.15.29-.22.37-.37.13-.26.27-.64.5-.88.07-.07.18-.06.25-.12.11-.11.17-.25.25-.37,0-.04-.02-.09,0-.12.1-.14.28-.23.37-.37.1-.15.12-.37.25-.5.03-.03.1.03.13,0,.13-.13.12-.37.25-.5.07-.07.19-.05.25-.12.11-.15.16-.33.25-.5.04-.07-.06-.19,0-.25.03-.03.1.03.13,0,0,0,.24-.46.25-.5.07-.22.05-.52.13-.75.08-.25.32-.49.37-.75.02-.12-.04-.26,0-.37.01-.04.1.03.12,0,.06-.06-.04-.17,0-.25.17-.35.39-.71.5-1.12.04-.16-.04-.34,0-.5.05-.18.19-.32.25-.5.06-.19-.06-.44,0-.62.14-.42.19-.76.37-1.12.12-.25.06-1.13,0-1.37-.01-.06-.1-.07-.12-.13-.03-.07,0-.17,0-.25l70.28-.56ZM346.42,357.84l65.01.52c-.01.14-.04.28,0,.4.04.11.22.14.25.25.04.16-.05.34,0,.5.09.27.18.48.25.75.06.23.31.43.37.63.07.2.07.42.13.62.14.49.4,1.01.5,1.5.04.2-.05.42,0,.63.09.37.11.78.25,1.12.14.36.41.75.5,1.12.02.08-.04.18,0,.25.12.25.25.19.37.37.25.38.5.75.75,1.13.22.32.7.53.87.87.06.12.08.25.12.37.04,0,.11-.04.13,0,.04.07-.05.18,0,.25.3.46.18-.13.37.25.06.12.07.26.13.37.08.16.32.33.37.5.03.08-.05.18,0,.25.05.08.18.06.25.13.64.64-.52-.17.37.5.3.23.67.71,1,.87.04.02.1-.03.12,0,.09.09.03.28.13.37.07.07.17.07.25.13.55.37.88.94,1.5,1.25.62.31,1.54.42,2.25.62.22.06.44.28.63.37.29.15.69.17,1,.25.18.05.32.2.5.25.2.05.42.06.63.12.08.03.3.22.37.25.12.04.25-.04.37,0,.8.27,1.67.67,2.5.88.08.02.18-.04.25,0,.04.02-.03.09,0,.12.09.09.5.19.63.25.16.08.09.17.25.25.36.18.78.28,1.12.5.27.17.48.44.75.62,1.12.77,2.35,1.39,3.49,2.12.27.17.78.58,1.12.75.27.14.73.24,1,.37.22.11.39.3.62.37.53.18,1.09.21,1.62.37.27.08.48.29.75.37.24.08.5.07.75.12.81.19,1.56.51,2.37.62,1.79.26,3.68.13,5.49.13,1.41,0,3.26.21,4.62-.13.5-.13,1.22,0,1.75,0h4.37c.3,0,.45.08.75.13.76.13,1.6.03,2.37.12,1.93.24,4.96.51,6.86.13.24-.05.51.06.75,0,.22-.05.41-.18.62-.25.37-.12-.25.25.37,0,.14-.06.24-.19.37-.25.27-.11.85-.16,1.12-.25.11-.04.14-.2.25-.25.8-.4,1.69-.68,2.5-1,.09-.03.16-.08.25-.12,0-.04-.04-.11,0-.13.18-.09.54-.07.75-.12.6-.15,0-.06.37-.25.16-.08.46-.04.63-.12.18-.09.27-.19.5-.25.43-.11,1.06,0,1.5,0h2.87c.25,0,.51.05.75,0,.26-.05.49-.2.75-.25.35-.07.21.1.63,0,.06-.01.07-.1.12-.12.22-.07.53.07.75,0,.57-.19,1.1-.49,1.62-.75.45-.23,1.15-.31,1.62-.5.13-.05,1.74-.74,1.87-.87.03-.03-.04-.11,0-.13.13-.07.36-.06.5-.12.33-.16.51-.51.75-.75.09-.09.27-.05.38-.12.29-.19-.06-.07.25-.37.03-.03.09.02.13,0,.11-.06.46-.43.5-.5.02-.03-.03-.1,0-.12.35-.28.74-.51,1.12-.75,1.04-.65.02.05.87-.37.21-.11.64-.44.87-.5.12-.03.25.03.37,0,.15-.04.24-.19.37-.25.73-.29.01,0,.75-.13.13-.02.25-.08.37-.12.04-.04.07-.11.12-.12.12-.03.25.02.38,0,.18-.04.32-.2.5-.25.44-.11.74-.21,1.12-.5.09-.07.14-.2.25-.25.04-.02.1.03.13,0s-.02-.09,0-.12c.08-.16.5-.54.63-.62.03-.02.08,0,.13,0,.08-.08.16-.17.25-.25.06-.07.05-.2.13-.25.07-.05.17.03.25,0,.29-.1.45-.42.75-.62.03-.02.09.03.12,0,.03-.03-.02-.09,0-.12.23-.35.25-.25.5-.5.11-.11.16-.49.25-.62.1-.15.3-.22.37-.37.13-.26.27-.64.5-.87.07-.07.18-.06.25-.13.11-.11.17-.25.25-.37,0-.04-.02-.09,0-.12.1-.14.28-.23.37-.37.1-.15.12-.37.25-.5.03-.03.1.03.13,0,.13-.13.12-.37.25-.5.07-.07.19-.05.25-.12.11-.15.17-.33.25-.5.04-.07-.06-.19,0-.25.03-.03.1.03.13,0,0,0,.24-.46.25-.5.07-.22.05-.52.13-.75.08-.25.32-.49.37-.75.02-.12-.04-.26,0-.37.01-.04.1.03.13,0,.06-.06-.04-.18,0-.25.17-.35.39-.71.5-1.12.04-.16-.04-.34,0-.5.05-.18.19-.32.25-.5.06-.19-.06-.44,0-.63.14-.42.19-.76.37-1.12l13.54.11c4.59-.29,8.43-.5,12.44-.78,6.65-.46,11.75-.65,15.28-.55,3.54.1,5.51.47,5.91,1.12.05.08-.11.36-.08.47l27.01.21c-.06.69-.06,1.39-.16,2.08-.35,2.47-.77,4.94-1.47,7.34-.73,2.37-1.51,4.73-2.62,6.95-1.22,2.4-2.64,4.67-4.28,6.81-1.22,1.54-2.47,3.06-3.66,4.62-1.24,1.57-2.41,3.2-3.67,4.76-1.14,1.42-2.35,2.78-3.53,4.16-1.16,1.34-2.32,2.67-3.48,4-.91,1-1.81,2.01-2.78,2.94-1.3,1.5-2.61,3-3.93,4.49-1.54,1.69-3.08,3.39-4.75,4.95-2.18,2.14-4.49,4.15-6.98,5.92-2.34,1.64-4.76,3.16-7.3,4.46-2.05,1.09-4.05,2.29-6.14,3.3-2.46,1.16-4.98,2.2-7.56,3.04-2.7.86-5.36,1.81-8.05,2.69-2.83.87-5.65,1.74-8.53,2.4-3.82.96-7.65,1.89-11.57,2.31-2.84.27-5.67.44-8.52.49-2.37.1-4.75.2-7.1.53-3.39.33-6.8.55-10.2.84-3.09.14-6.18.19-9.26.4-3.38.21-6.77.46-10.16.4-2.96-.11-5.92-.27-8.85-.73-3.71-.58-7.4-1.3-11.06-2.19-3.36-.88-6.75-1.67-10.14-2.44-3.79-.98-7.58-2.02-11.25-3.38-2.55-.94-5.08-1.92-7.57-3-2.2-.94-4.4-1.89-6.61-2.81-2.37-.95-4.78-1.78-7.16-2.69-3.52-1.28-7.05-2.56-10.49-4.04-.92-.46-1.86-.87-2.74-1.37-.06-.04-.12-.08-.19-.12-1.04-.39-2.07-.81-3.07-1.28-1.78-.84-3.55-1.71-5.28-2.66-4.03-2.42-7.14-5.15-8.91-9.67-.41-1.09-.87-2.15-1.26-3.25-.14-.42-.28-.84-.42-1.26,0,0,0-.02,0-.03-.04-.18-.17-.33-.17-.51,0,0,0,0,0,0-.38-.78-.64-1.31-1.28-2.29-1.01-1.74-2.02-3.48-2.74-5.36-.74-1.89-1.38-3.81-1.82-5.8-.54-2.45-.95-4.94-.84-7.46.03-1.59.08-3.18.24-4.77.13-1.27.27-2.54.49-3.79.11-1.35.29-2.68.31-3.43.07-1.66.16-3.31.38-4.96.02-.16.04-.31.06-.47,0-.05.02-.18.03-.13,0,.15-.02.6-.01.45.03-.71.03-1.42.09-2.13,0-.06.02-.11.02-.17ZM880.24,357.86c-.04.37-.03.74-.08,1.11-.35,2.47-.77,4.94-1.47,7.34-.73,2.37-1.51,4.73-2.62,6.95-1.22,2.4-2.64,4.67-4.28,6.81-1.22,1.54-2.47,3.06-3.66,4.62-1.24,1.57-2.41,3.2-3.67,4.76-1.14,1.42-2.35,2.78-3.53,4.16-1.16,1.34-2.32,2.67-3.48,4-.91,1-1.81,2.01-2.78,2.94-1.3,1.5-2.61,3-3.93,4.49-1.54,1.69-3.08,3.39-4.75,4.95-2.18,2.14-4.49,4.15-6.98,5.92-2.34,1.64-4.76,3.16-7.3,4.46-2.05,1.09-4.05,2.29-6.14,3.3-2.46,1.16-4.98,2.2-7.56,3.04-2.7.86-5.36,1.81-8.05,2.69-2.83.87-5.65,1.74-8.53,2.4-3.82.96-7.65,1.89-11.57,2.31-2.84.27-5.67.44-8.52.49-2.37.1-4.75.2-7.1.53-3.39.33-6.8.55-10.2.84-3.09.14-6.17.19-9.26.4-3.38.21-6.77.46-10.16.4-2.96-.11-5.92-.27-8.85-.73-3.71-.58-7.4-1.3-11.06-2.19-3.36-.88-6.75-1.67-10.14-2.44-3.79-.98-7.58-2.02-11.25-3.38-2.55-.94-5.08-1.92-7.57-3-2.2-.94-4.4-1.89-6.61-2.81-2.37-.95-4.78-1.78-7.16-2.69-3.52-1.28-7.05-2.56-10.49-4.04-.92-.46-1.86-.87-2.74-1.37-.06-.04-.12-.08-.18-.12-1.04-.39-2.07-.81-3.08-1.28-1.78-.84-3.55-1.71-5.28-2.66-4.03-2.42-7.14-5.15-8.9-9.67-.41-1.09-.87-2.15-1.26-3.25-.14-.42-.28-.84-.42-1.26,0,0,0-.02,0-.03-.04-.18-.17-.33-.17-.51,0,0,0,0,0,0-.38-.78-.64-1.31-1.28-2.29-1.01-1.74-2.02-3.48-2.74-5.36-.74-1.89-1.38-3.81-1.82-5.8-.54-2.45-.95-4.94-.84-7.47.03-1.59.08-3.18.24-4.77.13-1.27.27-2.54.49-3.79.11-1.35.29-2.68.31-3.43.04-.9.14-1.79.21-2.68l21.18-.17c.03-.11-.13-.39-.08-.47.4-.65,2.38-1.03,5.91-1.12,3.54-.1,8.63.09,15.28.55,4.01.28,7.85.48,12.44.78l11.93-.1c0,.53-.02,1.17,0,1.24.01.06.11.07.13.12.08.31-.1.7,0,1,.04.11.22.14.25.25.04.16-.05.34,0,.5.09.27.18.48.25.75.06.23.31.43.37.63.07.2.06.42.12.62.14.49.4,1.01.5,1.5.04.2-.05.42,0,.63.09.37.11.78.25,1.12.14.36.41.75.5,1.12.02.08-.04.18,0,.25.12.25.25.19.37.37.25.38.5.75.75,1.12.22.32.7.53.87.88.06.12.08.25.12.37.04,0,.11-.04.12,0,.04.07-.05.18,0,.25.3.46.18-.13.37.25.06.12.07.26.12.37.08.16.32.33.37.5.03.08-.05.18,0,.25.05.08.18.06.25.12.64.64-.52-.17.37.5.3.23.67.71,1,.87.04.02.1-.03.13,0,.09.09.03.28.12.37.07.07.17.07.25.12.55.37.88.94,1.5,1.25.62.31,1.54.42,2.25.62.22.06.44.28.62.37.29.15.69.17,1,.25.18.05.32.2.5.25.2.05.42.06.62.13.08.03.3.22.37.25.12.04.26-.04.37,0,.8.27,1.67.67,2.5.87.08.02.18-.04.25,0,.04.02-.03.09,0,.12.09.09.49.19.62.25.16.08.09.17.25.25.36.18.78.28,1.12.5.27.17.48.44.75.62,1.12.77,2.35,1.39,3.5,2.12.27.17.78.58,1.12.75.27.14.73.24,1,.38.22.11.39.3.62.37.53.18,1.09.21,1.62.37.27.08.49.29.75.37.24.08.5.07.75.13.81.19,1.56.51,2.37.62,1.79.26,3.68.12,5.49.12,1.41,0,3.26.21,4.62-.12.5-.13,1.22,0,1.75,0h4.37c.3,0,.45.08.75.12.76.13,1.6.03,2.37.13,1.93.24,4.96.51,6.87.12.24-.05.51.06.75,0,.22-.05.41-.18.62-.25.37-.12-.25.25.37,0,.14-.06.24-.19.37-.25.27-.11.85-.16,1.12-.25.11-.04.14-.2.25-.25.8-.4,1.69-.68,2.5-1,.09-.03.17-.08.25-.12,0-.04-.04-.11,0-.12.18-.09.54-.07.75-.13.6-.15,0-.06.37-.25.16-.08.46-.04.62-.12.18-.09.27-.19.5-.25.43-.11,1.06,0,1.5,0h2.87c.25,0,.51.05.75,0,.26-.05.49-.2.75-.25.35-.07.21.1.62,0,.06-.01.07-.11.13-.13.22-.07.52.07.75,0,.57-.19,1.1-.49,1.62-.75.45-.23,1.16-.31,1.62-.5.13-.05,1.74-.74,1.87-.87.03-.03-.04-.11,0-.12.13-.07.36-.06.5-.13.33-.16.51-.51.75-.75.09-.09.27-.05.37-.13.29-.19-.05-.07.25-.37.03-.03.09.02.12,0,.11-.06.45-.43.5-.5.02-.03-.03-.1,0-.12.35-.28.74-.51,1.12-.75,1.04-.65.03.05.88-.37.21-.11.64-.44.87-.5.12-.03.25.03.37,0,.15-.04.23-.19.37-.25.73-.29.02,0,.75-.12.13-.02.25-.08.37-.13.04-.04.07-.11.12-.12.12-.03.25.02.37,0,.18-.04.32-.2.5-.25.44-.11.74-.21,1.12-.5.09-.07.14-.2.25-.25.04-.02.09.03.12,0,.03-.03-.02-.09,0-.13.08-.16.5-.54.63-.62.03-.02.08,0,.12,0l.25-.25c.06-.07.05-.2.13-.25.07-.05.17.03.25,0,.29-.1.45-.42.75-.62.03-.02.1.03.12,0,.03-.03-.02-.09,0-.12.23-.35.25-.25.5-.5.11-.11.16-.49.25-.62.1-.15.3-.22.37-.37.13-.26.27-.64.5-.87.07-.07.18-.06.25-.12.11-.11.17-.25.25-.37,0-.04-.02-.09,0-.13.1-.14.28-.23.37-.37.1-.15.12-.37.25-.5.03-.03.09.03.12,0,.13-.13.12-.37.25-.5.07-.07.19-.05.25-.13.11-.15.17-.33.25-.5.04-.07-.06-.19,0-.25.03-.03.1.03.13,0,0,0,.24-.46.25-.5.07-.22.05-.52.13-.75.08-.25.32-.49.37-.75.02-.12-.04-.25,0-.37.01-.04.1.03.13,0,.06-.06-.04-.18,0-.25.17-.35.4-.71.5-1.12.04-.16-.04-.34,0-.5.05-.18.19-.32.25-.5.06-.19-.06-.44,0-.63.14-.42.19-.76.37-1.12.12-.25.06-1.13,0-1.37-.01-.06-.1-.07-.12-.12-.17-.33.17-.92,0-1.25-.15-.3-.07-.51-.11-.76l72.84-.58ZM1158.19,437.96c-.18.21-.36.42-.54.63-.97,1.08-1.93,2.16-2.97,3.17-1.39,1.62-2.79,3.23-4.19,4.84-1.64,1.82-3.29,3.65-5.08,5.33-2.33,2.3-4.79,4.46-7.45,6.37-2.5,1.76-5.08,3.39-7.8,4.79-2.19,1.17-4.33,2.46-6.56,3.54-2.62,1.25-5.31,2.35-8.08,3.24-2.88.91-5.73,1.92-8.6,2.86-3.02.92-6.03,1.84-9.11,2.54-4.08,1.02-8.17,1.99-12.36,2.43-3.03.28-6.06.44-9.1.46-2.53.09-5.07.19-7.58.52-3.62.34-7.26.55-10.89.84-3.3.13-6.59.16-9.89.37-3.61.21-7.23.46-10.85.37-3.16-.14-6.32-.34-9.45-.86-15.74.13-26.36-1.43-40.62-5.49-2.35-1.03-7.35-4.28-9.71-5.3-3.76.37-10.31-2.05-14.44-5.61-8.87-3.9-18.39-10.66-20.17-12.52-2.49-1.54-3.22-3.16-3.76-5.15l5.04,2.96v.02c.72.23,1.63.42,2.2.7,4.21,2.09,14.04,5.79,21.84,8.23,7.8,2.44,20.95,6.24,29.21,8.44s15.51,3.6,16.11,3.11c.6-.49,13.88.42,27.28-.72,13.61-1.15,27.71-1.91,32.91-2.31,5.21-.4,12.79-1.22,16.84-1.82,4.06-.6,13.55-2.73,21.1-4.73,7.55-2,17.03-4.91,21.08-6.47,4.05-1.55,9.3-4.4,11.67-6.32.78-.64,1.68-1.12,2.9-1.55l11.02-6.91ZM861.66,439.38c-.18.21-.36.42-.54.63-.97,1.08-1.93,2.16-2.97,3.17-1.39,1.62-2.79,3.23-4.2,4.84-1.64,1.82-3.29,3.65-5.07,5.33-2.33,2.3-4.79,4.46-7.45,6.37-2.5,1.76-5.08,3.39-7.8,4.79-2.19,1.17-4.33,2.46-6.56,3.54-2.62,1.25-5.31,2.35-8.07,3.24-2.88.91-5.73,1.92-8.6,2.86-3.02.92-6.03,1.84-9.11,2.54-4.08,1.02-8.17,1.99-12.36,2.43-3.03.28-6.06.44-9.1.46-2.53.09-5.07.19-7.58.52-3.62.34-7.26.55-10.89.84-3.3.13-6.6.16-9.89.37-3.61.21-7.23.46-10.85.37-3.16-.14-6.32-.34-9.45-.86-15.74.13-26.36-1.43-40.62-5.49-2.35-1.03-7.35-4.29-9.71-5.3-3.76.37-10.31-2.05-14.44-5.61-8.87-3.9-18.39-10.66-20.17-12.52-2.49-1.54-3.22-3.16-3.76-5.15l5.04,2.96v.02c.72.23,1.63.42,2.2.7,4.21,2.09,14.04,5.79,21.84,8.23,7.8,2.44,20.95,6.24,29.2,8.44,8.26,2.2,15.51,3.6,16.11,3.11.6-.49,14.26.67,25.91-1.59,13.41-2.6,29.08-1.03,34.29-1.44,5.21-.4,12.79-1.22,16.84-1.82,4.06-.6,13.55-2.73,21.1-4.73,7.55-2,17.03-4.91,21.08-6.47,4.05-1.55,9.3-4.4,11.67-6.32.78-.64,1.68-1.12,2.89-1.55l11.02-6.91ZM563.72,442.2c-.18.21-.36.42-.54.63-.97,1.08-1.93,2.16-2.97,3.17-1.39,1.62-2.79,3.23-4.2,4.84-1.64,1.82-3.29,3.65-5.07,5.33-2.33,2.3-4.79,4.46-7.45,6.37-2.5,1.76-5.08,3.39-7.8,4.79-2.19,1.17-4.33,2.45-6.56,3.54-2.62,1.25-5.31,2.35-8.08,3.24-2.88.91-5.73,1.92-8.6,2.86-3.02.92-6.04,1.84-9.11,2.54-4.08,1.02-8.17,1.99-12.36,2.43-3.03.28-6.06.44-9.1.47-2.53.09-5.07.19-7.58.52-3.62.34-7.26.55-10.89.84-3.3.13-6.59.16-9.89.37-3.61.21-7.23.46-10.85.37-3.16-.14-6.32-.34-9.45-.86-15.74.13-26.36-1.43-40.62-5.49-2.35-1.03-7.35-4.29-9.71-5.3-3.76.37-10.31-2.05-14.44-5.61-8.87-3.9-18.39-10.66-20.17-12.52-2.49-1.54-3.21-3.16-3.76-5.15l5.04,2.96v.02c.72.23,1.63.42,2.2.7,4.21,2.09,14.04,5.79,21.84,8.23,7.8,2.44,20.95,6.24,29.2,8.44s15.51,3.6,16.11,3.11c.6-.49,13.88.29,27.85-.78,13.62-1.04,27.14-1.85,32.35-2.25,5.21-.4,12.79-1.22,16.84-1.82,4.06-.6,13.55-2.73,21.1-4.73,7.55-2,17.03-4.91,21.08-6.47,4.05-1.55,9.3-4.4,11.67-6.32.78-.64,1.68-1.12,2.9-1.55l11.02-6.91ZM263.14,445.98c-.18.21-.36.42-.54.63-.97,1.08-1.93,2.16-2.97,3.17-1.39,1.62-2.79,3.23-4.2,4.84-1.64,1.82-3.29,3.65-5.07,5.33-2.33,2.3-4.79,4.46-7.45,6.37-2.5,1.76-5.08,3.39-7.8,4.79-2.19,1.17-4.33,2.45-6.56,3.54-2.62,1.25-5.31,2.35-8.07,3.24-2.88.91-5.73,1.92-8.6,2.86-3.02.92-6.03,1.84-9.11,2.54-4.08,1.02-8.17,1.99-12.36,2.43-3.03.28-6.06.44-9.1.46-2.53.09-5.07.19-7.58.52-3.62.34-7.26.55-10.89.84-3.3.13-6.59.16-9.89.37-3.61.21-7.23.46-10.85.37-3.16-.14-6.32-.34-9.45-.86-15.74.13-26.36-1.43-40.62-5.49-2.35-1.03-7.35-4.28-9.71-5.3-3.76.37-10.31-2.05-14.44-5.61-8.87-3.9-18.39-10.66-20.17-12.52-2.49-1.54-3.22-3.16-3.76-5.15l5.04,2.96v.02c.72.23,1.63.42,2.2.7,4.21,2.09,14.04,5.79,21.84,8.23,7.8,2.44,20.95,6.24,29.21,8.44,8.26,2.2,15.51,3.6,16.11,3.11.6-.49,12.26-1.21,25.91-1.59,13.65-.39,29.08-1.03,34.29-1.44,5.21-.4,12.79-1.22,16.84-1.82,4.06-.6,13.55-2.73,21.1-4.73,7.55-2,17.03-4.91,21.08-6.47,4.05-1.55,9.3-4.4,11.67-6.32.78-.64,1.68-1.12,2.89-1.55l11.02-6.91Z"/>
    </g>
  </g>
</svg>